:SAMPLES-PER-SECOND 30
:FULLY-SPECIFIED
:DEGREES
626
root  3.05512 30.9171 -73.117 90.1258 5.74853 95.5382
Spine  3.68965 -2.95613 -13.9176
Spine1  2.77903 -10.2636 7.29589
Neck  3.97569e-016 0 -2.38542e-015
Head  -7.42115 -2.58767 36.202
R_Clavicle  0.391033 -18.9562 1.111
R_UpperArm  42.7805 -6.68597 26.6025
R_Forearm  -7.64715 -45.3444 32.6516
R_Hand  -1.2286 7.09889 -20.6184
L_Clavicle  -0.717969 21.4364 -2.07602
L_UpperArm  -24.3152 1.05664 20.5955
L_Forearm  17.7819 45.8816 54.0637
L_Hand  0.0581698 -2.45449 1.82813
L_Thigh  -12.5407 -6.21782 -4.51592
L_Calf  -1.60836 -1.10477 9.52875
L_Foot  7.77201 10.6545 16.8004
L_Toe0  0.505156 0.00576558 -6.13635
R_Thigh  13.5319 -6.7529 -12.2634
R_Calf  4.23768 -1.12117 -3.46583
R_Foot  1.89245 4.46014 -8.48114
R_Toe0  10.039 -5.49659 13.4403
627
root  3.14896 30.9861 -72.6091 89.5316 5.86697 95.4948
Spine  3.2539 -4.1422 -14.3081
Spine1  2.37277 -8.39153 7.39536
Neck  3.97569e-016 0 -2.38542e-015
Head  -4.40352 -3.05171 35.516
R_Clavicle  0.393822 -19.1167 1.15434
R_UpperArm  42.5875 -6.2065 27.7635
R_Forearm  -2.42378 -42.9751 29.616
R_Hand  -1.28695 6.66892 -21.0888
L_Clavicle  -0.719311 21.4661 -2.07367
L_UpperArm  -24.0053 1.65278 19.9351
L_Forearm  16.7047 45.5411 52.7329
L_Hand  0.0646169 -2.29529 1.97001
L_Thigh  -13.0115 -6.09401 -6.02638
L_Calf  -1.59024 -1.19254 10.2891
L_Foot  7.86607 10.3871 17.4184
L_Toe0  0.505156 0.00661495 -6.13634
R_Thigh  13.7073 -7.83554 -9.13318
R_Calf  3.6056 -1.84653 -5.81187
R_Foot  1.56376 1.86888 -10.8409
R_Toe0  10.7513 -5.53107 10.1985
628
root  3.20806 31.0848 -72.0543 88.5854 5.85646 95.1484
Spine  2.92601 -4.85232 -14.9048
Spine1  2.13137 -6.68794 7.43327
Neck  3.97569e-016 0 -2.38542e-015
Head  -1.96044 -3.26032 34.7273
R_Clavicle  0.398441 -19.2921 1.26354
R_UpperArm  42.4704 -5.72563 28.5775
R_Forearm  1.79552 -40.6256 27.0323
R_Hand  -1.31232 6.23 -21.3302
L_Clavicle  -0.726754 21.6455 -2.04581
L_UpperArm  -23.4606 1.99685 19.5582
L_Forearm  15.2953 44.9358 50.4418
L_Hand  0.0627466 -2.04002 1.79736
L_Thigh  -13.6593 -5.60259 -7.63037
L_Calf  -1.27075 -1.31915 11.3206
L_Foot  7.98133 10.1808 18.0335
L_Toe0  0.505156 0.00766957 -6.13633
R_Thigh  13.2369 -8.50173 -5.90402
R_Calf  3.33744 -2.13471 -6.7128
R_Foot  1.44758 2.21869 -8.72166
R_Toe0  9.02009 -3.30452 2.50137
629
root  3.23537 31.1696 -71.4604 87.4401 5.92257 94.6784
Spine  2.62082 -5.31772 -15.232
Spine1  1.982 -5.15243 7.12885
Neck  3.97569e-016 0 -2.38542e-015
Head  -0.135613 -3.13822 34.2455
R_Clavicle  0.404006 -19.4516 1.42902
R_UpperArm  42.092 -5.33371 28.9155
R_Forearm  4.13887 -38.5161 25.258
R_Hand  -1.31911 5.97538 -21.4155
L_Clavicle  -0.727383 21.7387 -1.97137
L_UpperArm  -22.6486 2.35624 19.4336
L_Forearm  13.7435 43.9741 47.4464
L_Hand  0.0457824 -1.91297 1.22272
L_Thigh  -14.2885 -4.98283 -9.36096
L_Calf  -1.01141 -1.47337 12.3422
L_Foot  8.06916 9.88216 18.6861
L_Toe0  0.505156 0.00893868 -6.13632
R_Thigh  12.3101 -8.80979 -3.03081
R_Calf  2.63742 -1.48238 -4.69006
R_Foot  1.3264 2.035 -7.82764
R_Toe0  7.99317 -2.93709 2.97127
630
root  3.23501 31.2493 -70.8327 86.3777 6.01818 93.9791
Spine  2.21273 -5.45859 -15.4255
Spine1  1.80964 -3.61218 6.78825
Neck  3.97569e-016 0 -2.38542e-015
Head  1.5671 -2.85923 34.0018
R_Clavicle  0.407793 -19.481 1.56963
R_UpperArm  41.4189 -5.06662 28.7835
R_Forearm  5.67437 -36.6423 24.2499
R_Hand  -1.31521 5.65848 -21.4037
L_Clavicle  -0.722982 21.6583 -1.96183
L_UpperArm  -20.6636 2.78839 19.5202
L_Forearm  10.7528 42.3744 44.0769
L_Hand  0.0113322 -1.68964 0.16556
L_Thigh  -14.44 -4.17472 -11.1292
L_Calf  -1.22693 -1.83302 13.339
L_Foot  8.05707 9.39445 19.2797
L_Toe0  0.505156 0.0104315 -6.13631
R_Thigh  11.3408 -8.59296 -0.666246
R_Calf  2.29292 -0.126969 -0.464219
R_Foot  1.12278 1.60314 -6.69104
R_Toe0  6.66046 -2.39882 2.3806
631
root  3.20894 31.3391 -70.1916 85.4462 5.96284 93.0328
Spine  1.72616 -5.32802 -15.8062
Spine1  1.62012 -1.91283 6.71146
Neck  3.97569e-016 0 -2.38542e-015
Head  3.40043 -2.67277 33.752
R_Clavicle  0.409815 -19.4345 1.65695
R_UpperArm  41.1032 -4.77675 28.3317
R_Forearm  6.92899 -35.2734 23.7488
R_Hand  -1.27927 5.19601 -21.0765
L_Clavicle  -0.721631 21.5561 -2.03215
L_UpperArm  -16.7495 2.99481 19.6483
L_Forearm  5.95799 40.0839 41.1457
L_Hand  -0.0286052 -1.46768 -0.910195
L_Thigh  -14.029 -3.15462 -12.8327
L_Calf  -1.84542 -2.50461 14.4396
L_Foot  7.97634 8.82996 19.7731
L_Toe0  0.505156 0.0121572 -6.13629
R_Thigh  10.5429 -7.86515 1.21585
R_Calf  2.15212 1.81819 5.60811
R_Foot  0.857598 1.55616 -4.10587
R_Toe0  3.76135 -0.923981 -6.30949
632
root  3.16162 31.4152 -69.542 84.5905 5.72844 92.1478
Spine  1.26317 -5.21016 -16.3376
Spine1  1.4705 -0.167212 6.76484
Neck  3.97569e-016 0 -2.38542e-015
Head  5.05789 -2.61039 33.4829
R_Clavicle  0.412069 -19.5411 1.72743
R_UpperArm  41.1664 -4.42666 27.8622
R_Forearm  7.7522 -34.4915 23.5538
R_Hand  -1.21972 4.80696 -20.4908
L_Clavicle  -0.720701 21.478 -2.0895
L_UpperArm  -12.7161 2.81434 19.5906
L_Forearm  1.86351 38.0333 39.3524
L_Hand  -0.0434869 -1.61006 -1.38754
L_Thigh  -13.6224 -2.21433 -14.4369
L_Calf  -2.436 -3.1836 15.6347
L_Foot  7.89343 8.29714 20.2325
L_Toe0  0.505156 0.0141251 -6.13628
R_Thigh  10.0698 -7.11693 2.43804
R_Calf  1.5509 4.56175 14.2541
R_Foot  0.737261 0.926124 -4.46848
R_Toe0  0.625851 -0.304601 -13.3677
633
root  3.1084 31.4837 -68.8655 83.8513 5.34022 91.5331
Spine  0.8731 -5.1084 -16.9333
Spine1  1.38212 1.39343 6.80312
Neck  3.97569e-016 0 -2.38542e-015
Head  6.21813 -2.57058 33.2885
R_Clavicle  0.414732 -19.8564 1.79217
R_UpperArm  41.6728 -4.25771 27.6424
R_Forearm  7.55426 -34.178 23.5947
R_Hand  -1.18262 4.52487 -20.1032
L_Clavicle  -0.713843 21.3236 -2.10564
L_UpperArm  -10.0637 2.34712 19.2095
L_Forearm  -0.00346809 37.1777 38.6172
L_Hand  -0.038457 -1.89544 -1.36644
L_Thigh  -13.0925 -1.60638 -15.9884
L_Calf  -3.2247 -3.9435 17.0754
L_Foot  7.76858 7.79683 20.5224
L_Toe0  0.505156 0.0163444 -6.13626
R_Thigh  9.96302 -6.61299 3.41966
R_Calf  1.14597 7.46766 23.9392
R_Foot  0.880398 -0.646217 -8.87358
R_Toe0  -1.57351 -0.259403 -17.4647
634
root  3.05933 31.5745 -68.1675 83.2699 4.77668 91.066
Spine  0.56789 -4.71845 -17.6188
Spine1  1.33519 2.6859 6.90907
Neck  3.97569e-016 0 -2.38542e-015
Head  6.8922 -2.59033 33.0972
R_Clavicle  0.416691 -20.2213 1.83203
R_UpperArm  42.8469 -4.44535 27.7434
R_Forearm  6.32067 -34.2736 23.9107
R_Hand  -1.18922 4.2476 -20.1488
L_Clavicle  -0.706243 21.1696 -2.10749
L_UpperArm  -9.00082 1.58833 18.5153
L_Forearm  0.31077 37.7785 38.6147
L_Hand  -0.0400654 -1.72931 -1.3413
L_Thigh  -12.1194 -1.17642 -17.582
L_Calf  -4.44991 -5.02799 19.0195
L_Foot  7.5778 7.36986 20.4976
L_Toe0  0.505156 0.0188243 -6.13623
R_Thigh  9.41607 -6.09987 5.11378
R_Calf  0.536753 9.80806 32.1808
R_Foot  1.32803 -2.83538 -15.7564
R_Toe0  -1.82396 -0.273416 -17.3436
635
root  2.98156 31.6341 -67.4481 82.902 4.17219 90.6379
Spine  0.323178 -3.979 -18.1565
Spine1  1.25436 3.73418 7.02144
Neck  3.97569e-016 0 -2.38542e-015
Head  7.17761 -2.81173 32.6886
R_Clavicle  0.417896 -20.5393 1.8478
R_UpperArm  44.6388 -4.81878 28.0981
R_Forearm  4.75611 -34.9305 24.6069
R_Hand  -1.21278 4.16952 -20.3888
L_Clavicle  -0.706574 21.202 -2.08058
L_UpperArm  -9.37979 0.497941 17.6035
L_Forearm  2.59844 39.4721 39.1981
L_Hand  -0.0441524 -1.20055 -1.23702
L_Thigh  -11.2163 -0.669124 -19.2591
L_Calf  -5.4482 -6.02838 21.0406
L_Foot  7.40518 6.95192 20.5219
L_Toe0  0.505156 0.021574 -6.13621
R_Thigh  6.59714 -5.1012 5.877
R_Calf  1.22195 12.3589 39.9615
R_Foot  1.40166 -3.84921 -17.2826
R_Toe0  -1.78853 -0.272788 -17.3235
636
root  2.81698 31.5899 -66.6517 83.0306 3.80598 90.2879
Spine  0.0142681 -3.2397 -18.182
Spine1  1.02656 4.7421 6.95946
Neck  3.97569e-016 0 -2.38542e-015
Head  7.16935 -3.26139 31.9123
R_Clavicle  0.418384 -20.77 1.83611
R_UpperArm  46.5256 -5.07937 28.5672
R_Forearm  3.5042 -36.3676 25.9327
R_Hand  -1.23565 4.54834 -20.64
L_Clavicle  -0.708968 21.3052 -2.02529
L_UpperArm  -11.4672 -0.510526 16.5999
L_Forearm  6.8596 41.5533 40.4302
L_Hand  -0.024736 -1.03691 -0.708899
L_Thigh  -11.2982 -0.0211192 -21.0186
L_Calf  -5.0754 -6.04331 22.4744
L_Foot  7.28998 6.36028 21.0019
L_Toe0  0.505156 0.0246027 -6.13618
R_Thigh  1.98467 -4.0181 6.23156
R_Calf  3.01413 14.3005 44.697
R_Foot  1.24609 -3.25973 -15.5391
R_Toe0  -1.78853 -0.272788 -17.3235
637
root  2.54234 31.4752 -65.7238 84.0226 3.75946 90.0972
Spine  -0.490687 -3.05441 -17.8547
Spine1  0.601998 6.23904 6.89206
Neck  3.97569e-016 0 -2.38542e-015
Head  7.13135 -3.85829 30.8804
R_Clavicle  0.417787 -20.8044 1.78221
R_UpperArm  47.7032 -5.09009 28.9565
R_Forearm  2.65578 -38.6031 28.3383
R_Hand  -1.28047 5.27531 -21.0889
L_Clavicle  -0.701722 21.191 -1.99085
L_UpperArm  -15.1648 -0.787379 15.7021
L_Forearm  11.9243 43.214 42.3007
L_Hand  -0.00046906 -1.5102 -0.144547
L_Thigh  -11.8436 0.693968 -23.0092
L_Calf  -3.51666 -5.09231 23.6992
L_Foot  7.10497 5.52131 21.6392
L_Toe0  0.505156 0.0279198 -6.13615
R_Thigh  1.71343 -3.34814 7.04107
R_Calf  1.25193 13.963 43.7454
R_Foot  1.13341 -2.68072 -14.0593
R_Toe0  -1.78853 -0.272788 -17.3235
